<?xml version="1.0" standalone="no"?>
<!DOCTYPE svg PUBLIC "-//W3C//DTD SVG 20010904//EN"
 "http://www.w3.org/TR/2001/REC-SVG-20010904/DTD/svg10.dtd">
<svg version="1.0" xmlns="http://www.w3.org/2000/svg"
 width="793.000000pt" height="793.000000pt" viewBox="0 0 793.000000 793.000000"
 preserveAspectRatio="xMidYMid meet">
<metadata>
Created by potrace 1.14, written by Peter Selinger 2001-2017
</metadata>
<g transform="translate(0.000000,793.000000) scale(0.100000,-0.100000)"
fill="#000000" stroke="none">
<path d="M0 3965 l0 -3965 3965 0 3965 0 0 3965 0 3965 -3965 0 -3965 0 0
-3965z m3864 1159 c9 -8 16 -31 16 -49 0 -66 10 -65 -513 -65 l-468 0 -25 26
c-20 19 -24 31 -19 52 12 53 3 52 516 52 421 0 479 -2 493 -16z m720 -6 c22
-31 20 -64 -4 -88 -19 -19 -33 -20 -304 -20 l-285 0 -21 27 c-15 19 -19 35
-15 53 13 51 8 50 321 50 291 0 293 0 308 -22z m-719 -192 c13 -9 19 -26 19
-51 0 -64 -3 -65 -320 -65 -281 0 -283 0 -298 22 -9 12 -16 32 -16 43 0 11 7
31 16 43 15 22 17 22 298 22 224 0 286 -3 301 -14z m389 -2 c9 -8 16 -31 16
-49 0 -58 -16 -65 -152 -65 -136 0 -158 9 -158 63 0 59 19 67 156 67 98 0 126
-3 138 -16z m841 2 c13 -9 19 -26 19 -51 0 -66 3 -65 -384 -65 -387 0 -384 -1
-384 65 0 66 -3 65 384 65 279 0 350 -3 365 -14z m330 0 c13 -9 19 -26 19 -51
0 -55 -20 -65 -129 -65 -109 0 -129 10 -129 65 0 55 20 65 129 65 62 0 97 -4
110 -14z m-1685 -206 c24 -24 26 -57 4 -88 -15 -22 -16 -22 -339 -22 -359 0
-355 -1 -355 65 0 64 6 65 357 65 300 0 314 -1 333 -20z m1608 4 c15 -10 22
-25 22 -49 0 -69 49 -65 -770 -65 -658 0 -740 2 -754 16 -21 20 -20 73 1 96
15 17 52 18 747 18 646 0 734 -2 754 -16z m-910 -200 c16 -11 22 -25 22 -54 0
-60 -22 -70 -158 -70 -107 0 -114 1 -137 25 -33 32 -32 68 1 94 23 18 41 21
138 21 85 0 117 -4 134 -16z m720 0 c16 -11 22 -25 22 -54 0 -69 -5 -70 -321
-70 -264 0 -277 1 -303 21 -35 28 -35 70 0 98 26 20 39 21 303 21 234 0 280
-2 299 -16z m900 0 c16 -11 22 -25 22 -54 0 -71 4 -70 -411 -70 -355 0 -367 1
-393 21 -17 13 -26 30 -26 49 0 19 9 36 26 49 26 20 38 21 393 21 316 0 370
-2 389 -16z m-1164 -210 c22 -22 20 -70 -4 -94 -20 -20 -33 -20 -914 -20
l-895 0 -20 26 c-25 32 -26 52 -5 82 l15 22 904 0 c808 0 905 -2 919 -16z
m604 -17 c14 -30 9 -58 -14 -82 -13 -12 -53 -15 -239 -15 -218 0 -225 1 -245
22 -24 26 -26 56 -4 86 15 22 17 22 252 20 l237 -3 13 -28z m-2126 -184 c22
-20 23 -70 1 -95 -14 -16 -33 -18 -159 -18 -136 0 -144 1 -158 22 -9 12 -16
32 -16 43 0 11 7 31 16 43 14 21 22 22 156 22 118 0 145 -3 160 -17z m622 1
c9 -8 16 -31 16 -49 0 -64 -5 -65 -272 -65 -211 0 -244 2 -260 17 -22 20 -23
70 -1 95 15 16 36 18 259 18 207 0 245 -2 258 -16z m538 -1 c22 -20 23 -70 1
-95 -15 -16 -35 -18 -215 -18 -185 0 -199 1 -218 20 -11 11 -20 31 -20 45 0
14 9 34 20 45 19 19 33 20 217 20 169 0 199 -2 215 -17z m-1072 -203 c24 -24
26 -57 4 -88 -15 -22 -17 -22 -299 -22 -315 0 -315 0 -315 65 0 63 10 65 317
65 260 0 274 -1 293 -20z m592 3 c21 -19 25 -82 6 -101 -9 -9 -77 -12 -244
-12 -198 0 -235 2 -248 16 -22 22 -20 70 4 94 19 19 33 20 242 20 192 0 224
-2 240 -17z m1110 0 c21 -19 25 -82 6 -101 -9 -9 -135 -12 -504 -12 l-493 0
-15 22 c-22 31 -20 64 4 88 19 19 33 20 502 20 434 0 483 -2 500 -17z m-844
-199 c16 -11 22 -25 22 -54 0 -72 12 -70 -482 -70 -425 0 -439 1 -458 20 -11
11 -20 33 -20 50 0 17 9 39 20 50 19 19 33 20 458 20 380 0 440 -2 460 -16z
m417 -9 c14 -13 25 -33 25 -45 0 -11 -11 -32 -25 -45 -23 -24 -30 -25 -148
-25 -111 0 -127 2 -151 21 -35 28 -35 70 0 98 24 19 40 21 151 21 118 0 125
-1 148 -25z m-1771 -207 c52 -74 -48 -151 -104 -81 -22 28 -21 63 2 90 18 22
85 16 102 -9z m1100 6 c22 -22 20 -70 -4 -94 -19 -19 -33 -20 -493 -20 -527 0
-517 -1 -517 65 0 68 -21 65 515 65 426 0 485 -2 499 -16z m580 -6 c22 -31 20
-64 -4 -88 -19 -19 -33 -20 -233 -20 -241 0 -257 4 -257 65 0 63 6 65 255 65
220 0 224 0 239 -22z m-206 -194 c27 -18 30 -69 5 -96 -14 -16 -34 -18 -175
-18 -145 0 -160 2 -178 20 -11 11 -20 31 -20 45 0 14 9 34 20 45 18 18 33 20
173 20 122 0 157 -3 175 -16z m-1088 -211 c15 -19 19 -35 15 -53 -13 -50 -13
-50 -256 -50 -253 0 -259 1 -259 65 0 61 16 65 261 65 l218 0 21 -27z m1462
10 c22 -20 24 -76 2 -97 -14 -14 -89 -16 -679 -16 -590 0 -665 2 -679 16 -21
20 -20 73 1 96 15 17 49 18 676 18 601 0 662 -2 679 -17z m-824 -199 c16 -11
22 -25 22 -54 0 -72 11 -70 -477 -70 -253 0 -442 4 -457 10 -45 17 -47 102 -3
120 12 5 218 9 457 9 379 1 438 -1 458 -15z m510 0 c16 -11 22 -25 22 -54 0
-65 -16 -70 -216 -70 -158 0 -173 2 -198 21 -35 28 -35 70 0 98 25 19 40 21
198 21 139 0 176 -3 194 -16z"/>
</g>
</svg>
